<svg width="514" height="214" viewBox="0 0 514 214" fill="none" xmlns="http://www.w3.org/2000/svg">
<path fill-rule="evenodd" clip-rule="evenodd" d="M52.4732 102.218L470.711 6.66575C499.543 0.0785567 528.522 18.2793 535.109 47.1114C541.696 75.9435 523.496 104.923 494.664 111.51L76.4263 207.062C47.5941 213.649 18.6147 195.449 12.0275 166.617C5.44035 137.784 23.6411 108.805 52.4732 102.218Z" fill="#D81010"/>
<mask id="mask0_149_131" style="mask-type:luminance" maskUnits="userSpaceOnUse" x="10" y="5" width="527" height="204">
<path d="M52.4732 102.218L470.711 6.66575C499.543 0.0785567 528.522 18.2793 535.109 47.1114C541.696 75.9435 523.496 104.923 494.664 111.51L76.4263 207.062C47.5941 213.649 18.6147 195.449 12.0275 166.617C5.44035 137.784 23.6411 108.805 52.4732 102.218Z" fill="white"/>
</mask>
<g mask="url(#mask0_149_131)">
<path d="M54.6532 221.924L47.2144 188.831L62.7204 185.345C66.6905 184.457 69.8933 184.559 72.3205 185.65C74.7558 186.74 76.2619 188.591 76.8481 191.211C77.2485 192.973 77.1776 194.573 76.634 196.001C76.0984 197.429 75.2159 198.641 74.0013 199.627C72.7779 200.606 71.3694 201.287 69.7575 201.647L70.2283 199.747C72.0869 199.336 73.8372 199.294 75.4647 199.639C77.1003 199.983 78.499 200.708 79.6511 201.8C80.812 202.899 81.6089 204.409 82.0341 206.331C82.6753 209.173 82.0824 211.623 80.2637 213.686C78.4451 215.749 75.3922 217.265 71.1046 218.226L54.6539 221.924L54.6532 221.924ZM59.7103 215.726L69.6429 213.494C71.945 212.973 73.6198 212.2 74.6834 211.165C75.7387 210.13 76.0789 208.78 75.7044 207.112C75.3413 205.476 74.4516 204.406 73.0519 203.908C71.6442 203.411 69.7936 203.423 67.4914 203.943L57.0904 206.28L56.0223 201.499L65.193 199.444C67.3368 198.964 68.8923 198.211 69.8768 197.2C70.8605 196.181 71.178 194.921 70.8352 193.405C70.4902 191.865 69.6534 190.838 68.3352 190.34C67.0168 189.842 65.2855 189.833 63.1426 190.321L54.4402 192.272L59.7105 215.725L59.7103 215.726Z" fill="#E25050"/>
<path d="M101.47 211.616C98.8901 212.198 96.465 212.155 94.1948 211.487C91.9255 210.827 89.9847 209.645 88.3814 207.958C86.7773 206.262 85.6935 204.172 85.1365 201.679C84.5692 199.163 84.6509 196.798 85.383 194.595C86.1076 192.4 87.3601 190.517 89.1253 188.963C90.8989 187.408 93.0717 186.34 95.6598 185.757C98.272 185.171 100.719 185.196 103.004 185.846C105.288 186.489 107.218 187.647 108.803 189.312C110.379 190.977 111.457 193.084 112.035 195.632C112.592 198.126 112.517 200.473 111.802 202.691C111.096 204.9 109.853 206.799 108.065 208.371C106.285 209.943 104.09 211.03 101.47 211.616L101.47 211.616ZM100.333 206.559C101.786 206.231 103.007 205.626 103.997 204.744C104.994 203.854 105.676 202.744 106.057 201.397C106.431 200.059 106.442 198.579 106.082 196.975C105.71 195.332 105.069 193.993 104.158 192.957C103.247 191.922 102.151 191.214 100.878 190.841C99.5969 190.47 98.2534 190.437 96.832 190.754C95.387 191.081 94.1658 191.686 93.1921 192.566C92.2193 193.453 91.5284 194.556 91.1293 195.889C90.7381 197.221 90.7198 198.701 91.0918 200.344C91.4515 201.948 92.1 203.278 93.0284 204.328C93.9648 205.377 95.053 206.086 96.3187 206.467C97.5765 206.85 98.9194 206.874 100.333 206.559L100.333 206.559Z" fill="#E25050"/>
<path d="M120.536 206.873L114.862 181.625L120.491 180.364L122.05 187.311L120.931 185.428C121.307 183.554 122.203 181.999 123.634 180.748C125.056 179.497 126.979 178.601 129.409 178.058L130.669 183.688C130.408 183.674 130.158 183.692 129.934 183.723C129.711 183.762 129.487 183.801 129.265 183.848C127.034 184.354 125.396 185.408 124.367 187.016C123.338 188.617 123.114 190.711 123.697 193.299L126.45 205.542L120.535 206.873L120.536 206.873Z" fill="#E25050"/>
<path d="M153.908 199.302L152.766 194.197L152.191 193.184L150.176 184.252C149.786 182.522 148.97 181.29 147.708 180.558C146.456 179.834 144.769 179.707 142.657 180.176C141.236 180.5 139.894 181.037 138.623 181.785C137.351 182.533 136.329 183.41 135.562 184.406L132.282 180.625C133.403 179.283 134.844 178.136 136.6 177.2C138.355 176.256 140.249 175.558 142.266 175.107C145.918 174.285 148.94 174.518 151.34 175.823C153.732 177.12 155.343 179.595 156.166 183.255L159.489 198.046L153.908 199.302ZM146.043 201.419C144.154 201.849 142.421 201.897 140.86 201.57C139.299 201.243 137.997 200.589 136.971 199.614C135.936 198.632 135.259 197.418 134.932 195.973C134.615 194.552 134.67 193.198 135.091 191.912C135.511 190.626 136.424 189.476 137.816 188.472C139.214 187.459 141.189 186.671 143.737 186.092L151.065 184.445L151.948 188.376L145.048 189.921C143.032 190.38 141.748 191.008 141.197 191.804C140.654 192.607 140.484 193.486 140.695 194.43C140.935 195.502 141.556 196.251 142.544 196.693C143.539 197.135 144.796 197.185 146.304 196.843C147.757 196.515 148.984 195.893 149.978 194.971C150.98 194.055 151.591 192.888 151.805 191.485L153.592 194.81C153.36 196.418 152.6 197.796 151.32 198.943C150.041 200.09 148.283 200.92 146.043 201.419L146.043 201.419Z" fill="#E25050"/>
<path d="M180.089 193.267L174.415 168.019L180.044 166.758L181.603 173.706L180.484 171.822C180.86 169.948 181.756 168.393 183.187 167.142C184.61 165.891 186.532 164.995 188.962 164.452L190.223 170.082C189.962 170.068 189.712 170.086 189.487 170.117C189.264 170.156 189.041 170.195 188.818 170.242C186.588 170.748 184.949 171.802 183.921 173.41C182.891 175.011 182.668 177.105 183.251 179.693L186.004 191.936L180.089 193.267L180.089 193.267Z" fill="#E25050"/>
<path d="M213.461 185.697L212.319 180.591L211.744 179.578L209.729 170.647C209.34 168.916 208.523 167.684 207.262 166.953C206.009 166.228 204.323 166.101 202.21 166.57C200.79 166.895 199.447 167.431 198.176 168.179C196.904 168.927 195.882 169.804 195.115 170.801L191.834 167.019C192.956 165.678 194.397 164.53 196.153 163.594C197.908 162.65 199.802 161.952 201.819 161.501C205.471 160.679 208.492 160.913 210.893 162.217C213.284 163.515 214.895 165.989 215.718 169.649L219.042 184.441L213.461 185.697L213.461 185.697ZM205.596 187.813C203.707 188.243 201.974 188.291 200.413 187.964C198.852 187.637 197.55 186.983 196.524 186.008C195.489 185.026 194.812 183.812 194.485 182.367C194.168 180.946 194.224 179.592 194.644 178.306C195.064 177.02 195.977 175.87 197.369 174.866C198.767 173.853 200.742 173.065 203.29 172.486L210.618 170.839L211.501 174.769L204.601 176.315C202.585 176.774 201.301 177.402 200.749 178.198C200.206 179.001 200.037 179.88 200.247 180.824C200.488 181.896 201.109 182.645 202.096 183.087C203.092 183.529 204.348 183.579 205.857 183.237C207.309 182.909 208.537 182.287 209.531 181.365C210.533 180.449 211.144 179.282 211.357 177.879L213.145 181.204C212.912 182.812 212.152 184.19 210.873 185.337C209.594 186.484 207.835 187.314 205.596 187.812L205.596 187.813Z" fill="#E25050"/>
<path d="M240.669 179.823C238.525 180.303 236.515 180.266 234.629 179.696C232.742 179.126 231.107 177.995 229.723 176.301C228.33 174.609 227.305 172.302 226.647 169.372C225.977 166.411 225.926 163.865 226.497 161.752C227.068 159.638 228.086 157.925 229.568 156.619C231.042 155.314 232.803 154.426 234.851 153.964C237.344 153.407 239.663 153.445 241.809 154.094C243.955 154.734 245.804 155.892 247.356 157.56C248.91 159.237 249.982 161.376 250.568 163.989C251.154 166.609 251.108 169.002 250.421 171.177C249.735 173.351 248.56 175.194 246.896 176.713C245.232 178.225 243.154 179.267 240.669 179.823L240.669 179.823ZM226.597 182.642L218.711 147.565L224.626 146.234L228.148 161.931L229.19 168.745L230.883 175.418L232.226 181.372L226.597 182.641L226.597 182.642ZM238.865 174.915C240.286 174.598 241.484 173.996 242.465 173.115C243.439 172.235 244.12 171.117 244.518 169.769C244.908 168.429 244.926 166.949 244.566 165.345C244.194 163.701 243.545 162.363 242.619 161.337C241.693 160.303 240.596 159.596 239.339 159.213C238.074 158.84 236.738 158.806 235.317 159.123C233.904 159.447 232.698 160.042 231.701 160.933C230.711 161.814 230.013 162.925 229.622 164.257C229.223 165.59 229.205 167.07 229.577 168.713C229.936 170.317 230.585 171.648 231.513 172.698C232.45 173.747 233.554 174.454 234.828 174.834C236.101 175.207 237.452 175.231 238.865 174.915L238.865 174.915Z" fill="#E25050"/>
<path d="M259.021 175.234L253.347 149.986L259.254 148.656L264.936 173.903L259.021 175.234ZM255.385 145.163C254.281 145.406 253.292 145.264 252.432 144.727C251.566 144.199 251.025 143.442 250.803 142.466C250.577 141.458 250.742 140.531 251.298 139.694C251.853 138.857 252.683 138.316 253.786 138.065C254.89 137.822 255.869 137.94 256.724 138.429C257.577 138.91 258.115 139.643 258.338 140.619C258.567 141.66 258.421 142.617 257.884 143.476C257.348 144.344 256.52 144.908 255.385 145.163L255.385 145.163Z" fill="#E25050"/>
<path d="M280.559 170.686C278.448 171.163 276.363 171.345 274.295 171.225C272.236 171.111 270.546 170.79 269.233 170.258L270.497 165.255C271.796 165.722 273.28 166.017 274.966 166.136C276.644 166.256 278.272 166.137 279.852 165.78C281.71 165.361 283.001 164.806 283.726 164.114C284.443 163.423 284.714 162.656 284.52 161.799C284.359 161.108 283.962 160.646 283.313 160.412C282.664 160.178 281.864 160.066 280.907 160.083C279.951 160.1 278.892 160.152 277.74 160.246C276.588 160.34 275.414 160.38 274.235 160.362C273.063 160.345 271.958 160.182 270.926 159.866C269.894 159.549 268.995 159.016 268.227 158.267C267.467 157.508 266.915 156.403 266.587 154.959C266.227 153.347 266.374 151.853 267.019 150.463C267.673 149.08 268.751 147.872 270.255 146.857C271.767 145.84 273.654 145.078 275.925 144.568C277.631 144.181 279.39 143.985 281.209 143.976C283.027 143.96 284.576 144.174 285.873 144.617L284.607 149.613C283.253 149.16 281.93 148.938 280.655 148.939C279.388 148.939 278.152 149.083 276.953 149.352C275.159 149.756 273.884 150.317 273.139 151.052C272.393 151.778 272.108 152.555 272.298 153.372C272.465 154.135 272.874 154.637 273.526 154.887C274.185 155.136 274.987 155.273 275.955 155.287C276.915 155.302 277.974 155.25 279.124 155.14C280.274 155.03 281.433 155 282.598 155.035C283.771 155.068 284.867 155.224 285.912 155.506C286.948 155.781 287.854 156.306 288.622 157.055C289.382 157.814 289.924 158.895 290.249 160.316C290.598 161.897 290.44 163.366 289.778 164.743C289.107 166.119 287.996 167.322 286.436 168.352C284.885 169.38 282.918 170.159 280.56 170.686L280.559 170.686Z" fill="#E25050"/>
<path d="M308.68 164.282C306.036 164.87 303.547 164.842 301.238 164.186C298.92 163.53 296.956 162.36 295.353 160.672C293.749 158.977 292.665 156.887 292.108 154.394C291.541 151.877 291.623 149.513 292.355 147.309C293.079 145.115 294.356 143.229 296.169 141.662C297.989 140.094 300.218 139.012 302.87 138.422C305.324 137.869 307.607 137.878 309.704 138.443C311.802 139.015 313.551 140.151 314.961 141.858L311.017 145.529C309.993 144.497 308.876 143.824 307.657 143.503C306.445 143.172 305.208 143.153 303.946 143.437C302.493 143.765 301.256 144.372 300.235 145.265C299.214 146.158 298.5 147.271 298.101 148.604C297.71 149.935 297.692 151.416 298.063 153.059C298.435 154.694 299.076 156.033 300.011 157.066C300.937 158.1 302.049 158.798 303.362 159.167C304.667 159.536 306.05 159.557 307.495 159.229C308.757 158.945 309.871 158.4 310.827 157.587C311.783 156.774 312.508 155.685 312.993 154.319L318.131 155.943C317.577 158.055 316.484 159.833 314.837 161.277C313.191 162.73 311.141 163.729 308.68 164.282L308.68 164.282Z" fill="#E25050"/>
<path d="M340.036 156.779L338.894 151.673L338.318 150.66L336.304 141.729C335.914 139.998 335.097 138.766 333.836 138.035C332.584 137.311 330.898 137.183 328.785 137.652C327.364 137.977 326.022 138.513 324.751 139.261C323.479 140.009 322.457 140.886 321.69 141.883L318.41 138.102C319.531 136.76 320.972 135.612 322.728 134.677C324.483 133.732 326.377 133.034 328.394 132.583C332.046 131.761 335.067 131.995 337.468 133.299C339.859 134.597 341.47 137.071 342.293 140.731L345.617 155.523L340.036 156.779ZM332.171 158.895C330.282 159.325 328.549 159.373 326.988 159.046C325.427 158.719 324.125 158.065 323.099 157.09C322.064 156.108 321.387 154.894 321.059 153.45C320.743 152.028 320.799 150.674 321.219 149.388C321.639 148.102 322.552 146.952 323.944 145.948C325.342 144.935 327.316 144.147 329.864 143.568L337.193 141.922L338.076 145.852L331.176 147.397C329.16 147.857 327.876 148.484 327.324 149.28C326.781 150.083 326.612 150.961 326.822 151.906C327.062 152.978 327.684 153.727 328.671 154.17C329.667 154.612 330.923 154.661 332.431 154.319C333.884 153.991 335.112 153.369 336.105 152.447C337.108 151.532 337.719 150.364 337.932 148.961L339.72 152.287C339.487 153.894 338.727 155.272 337.448 156.419C336.169 157.566 334.41 158.397 332.171 158.895L332.171 158.895Z" fill="#E25050"/>
<path d="M353.172 153.724L347.498 128.476L353.128 127.215L354.687 134.163L353.567 132.279C353.943 130.405 354.839 128.851 356.27 127.599C357.693 126.348 359.615 125.452 362.046 124.909L363.306 130.539C363.045 130.525 362.795 130.543 362.571 130.574C362.348 130.613 362.124 130.652 361.902 130.699C359.671 131.205 358.033 132.259 357.004 133.867C355.975 135.468 355.751 137.562 356.334 140.15L359.087 152.393L353.172 153.724Z" fill="#E25050"/>
<path d="M385.603 156.296C384.507 156.539 383.431 156.658 382.382 156.644C381.34 156.629 380.412 156.448 379.605 156.101L380.316 151.324C381.379 151.784 382.604 151.852 383.993 151.539C385.065 151.299 385.824 150.774 386.268 149.957C386.712 149.148 386.79 148.084 386.491 146.758L380.681 120.898L386.588 119.568L392.367 145.285C392.994 148.063 392.725 150.43 391.562 152.394C390.392 154.366 388.414 155.666 385.603 156.296ZM382.671 116.08C381.568 116.331 380.579 116.189 379.719 115.653C378.852 115.116 378.311 114.36 378.089 113.383C377.863 112.375 378.029 111.456 378.585 110.619C379.14 109.782 379.97 109.234 381.074 108.991C382.177 108.739 383.156 108.858 384.01 109.347C384.864 109.835 385.403 110.568 385.625 111.544C385.854 112.585 385.708 113.534 385.171 114.401C384.635 115.269 383.807 115.825 382.671 116.08Z" fill="#E25050"/>
<path d="M410.773 140.95C408.629 141.43 406.65 141.455 404.826 141.017C403.011 140.586 401.459 139.641 400.173 138.189C398.887 136.746 397.961 134.761 397.392 132.237L394.147 117.819L400.062 116.488L403.119 130.105C403.629 132.376 404.522 133.957 405.799 134.841C407.077 135.733 408.66 135.96 410.55 135.539C411.939 135.225 413.076 134.67 413.976 133.87C414.87 133.08 415.486 132.042 415.812 130.782C416.136 129.514 416.115 128.046 415.741 126.378L412.869 113.612L418.784 112.281L424.458 137.529L418.828 138.79L417.3 131.985L418.758 133.842C418.28 135.67 417.317 137.206 415.868 138.436C414.427 139.672 412.726 140.513 410.773 140.95L410.773 140.95Z" fill="#E25050"/>
<path d="M440.786 106.917C442.803 106.466 444.694 106.458 446.469 106.885C448.235 107.312 449.759 108.236 451.034 109.657C452.318 111.076 453.244 113.06 453.815 115.609L457.065 130.075L451.158 131.406L448.075 117.694C447.569 115.456 446.67 113.907 445.363 113.042C444.064 112.176 442.465 111.959 440.576 112.381C439.186 112.694 438.025 113.252 437.076 114.056C436.136 114.868 435.495 115.9 435.16 117.145C434.834 118.397 434.856 119.873 435.241 121.572L438.113 134.339L432.199 135.67L426.524 110.422L432.154 109.161L433.682 115.965L432.224 114.108C432.745 112.3 433.75 110.776 435.238 109.534C436.734 108.283 438.578 107.412 440.785 106.917L440.786 106.917Z" fill="#E25050"/>
<path d="M474.154 126.467C471.382 127.085 469.076 126.851 467.241 125.756C465.406 124.662 464.175 122.717 463.546 119.914L458.455 97.2622L464.363 95.94L469.421 118.441C469.691 119.639 470.201 120.497 470.97 121.019C471.731 121.55 472.662 121.681 473.767 121.438C475.093 121.139 476.12 120.546 476.84 119.652L479.444 123.486C478.877 124.21 478.119 124.825 477.181 125.335C476.235 125.847 475.226 126.227 474.154 126.467L474.154 126.467ZM456.65 108.698L455.587 103.966L472.419 100.189L473.481 104.913L456.65 108.698Z" fill="#E25050"/>
<path d="M495.184 121.666C492.604 122.248 490.179 122.206 487.909 121.537C485.64 120.877 483.699 119.696 482.096 118.008C480.492 116.313 479.408 114.223 478.851 111.729C478.283 109.213 478.365 106.849 479.097 104.645C479.822 102.451 481.075 100.567 482.84 99.013C484.613 97.4581 486.786 96.3899 489.374 95.807C491.986 95.2216 494.434 95.2462 496.718 95.8967C499.002 96.5394 500.933 97.6972 502.517 99.3621C504.094 101.028 505.171 103.134 505.75 105.683C506.307 108.176 506.231 110.523 505.517 112.741C504.81 114.95 503.567 116.849 501.779 118.422C499.999 119.994 497.804 121.08 495.184 121.666L495.184 121.666ZM494.047 116.609C495.5 116.281 496.722 115.676 497.711 114.794C498.708 113.904 499.39 112.794 499.772 111.447C500.146 110.109 500.156 108.63 499.796 107.026C499.424 105.382 498.783 104.043 497.872 103.008C496.962 101.972 495.866 101.264 494.593 100.892C493.311 100.52 491.968 100.487 490.546 100.804C489.102 101.131 487.881 101.736 486.907 102.616C485.934 103.504 485.243 104.606 484.844 105.939C484.453 107.271 484.435 108.751 484.807 110.394C485.166 111.998 485.815 113.329 486.743 114.378C487.68 115.428 488.768 116.136 490.034 116.518C491.291 116.9 492.634 116.925 494.048 116.609L494.047 116.609Z" fill="#E25050"/>
<path d="M512.164 105.871L506.057 83.9981L513.052 82.4262L516.848 104.813L512.164 105.871L512.164 105.871ZM517.072 116.633C515.969 116.885 514.97 116.727 514.084 116.169C513.197 115.602 512.637 114.815 512.411 113.806C512.186 112.798 512.35 111.863 512.917 110.984C513.486 110.114 514.322 109.557 515.425 109.305C516.521 109.062 517.503 109.213 518.356 109.767C519.209 110.321 519.744 111.103 519.978 112.111C520.203 113.119 520.049 114.061 519.522 114.943C518.988 115.827 518.176 116.39 517.072 116.633Z" fill="#E25050"/>
<path d="M32.5981 125.388L25.1593 92.2958L40.6652 88.8091C44.6353 87.9219 47.8382 88.0231 50.2654 89.1139C52.7006 90.2039 54.2068 92.0554 54.793 94.6756C55.1933 96.4378 55.1224 98.0373 54.5788 99.4658C54.0432 100.894 53.1607 102.106 51.9462 103.091C50.7227 104.07 49.3142 104.751 47.7024 105.112L48.1731 103.211C50.0318 102.801 51.782 102.759 53.4096 103.103C55.0451 103.447 56.4438 104.172 57.5958 105.264C58.7568 106.363 59.5537 107.873 59.9789 109.795C60.6201 112.637 60.0272 115.087 58.2085 117.15C56.3899 119.213 53.337 120.729 49.0494 121.69L32.5986 125.388L32.5981 125.388ZM37.6551 119.19L47.5877 116.959C49.8898 116.438 51.5647 115.665 52.6282 114.629C53.6835 113.595 54.0238 112.244 53.6493 110.576C53.2861 108.94 52.3964 107.87 50.9967 107.372C49.589 106.876 47.7384 106.887 45.4362 107.408L35.0352 109.744L33.9671 104.964L43.1378 102.908C45.2816 102.428 46.8371 101.675 47.8216 100.664C48.8053 99.645 49.1228 98.3857 48.78 96.8695C48.4351 95.3292 47.5982 94.3024 46.2801 93.8042C44.9616 93.3061 43.2303 93.2973 41.0874 93.7858L32.385 95.7362L37.6554 119.19L37.6551 119.19Z" fill="#E25050"/>
<path d="M79.4151 115.08C76.8349 115.662 74.4098 115.619 72.1397 114.951C69.8703 114.291 67.9295 113.109 66.3263 111.422C64.7222 109.727 63.6384 107.637 63.0813 105.143C62.514 102.627 62.5957 100.263 63.3278 98.0591C64.0524 95.8647 65.305 93.9812 67.0702 92.4271C68.8437 90.8721 71.0165 89.8039 73.6046 89.221C76.2168 88.6357 78.6643 88.6603 80.9488 89.3107C83.2325 89.9534 85.163 91.1113 86.7474 92.7761C88.3238 94.4418 89.4016 96.5485 89.9803 99.0966C90.537 101.59 90.4616 103.937 89.7472 106.155C89.0403 108.364 87.7975 110.263 86.0097 111.836C84.2298 113.407 82.0346 114.494 79.4145 115.08L79.4151 115.08ZM78.278 110.023C79.7307 109.695 80.9522 109.09 81.9415 108.208C82.9384 107.318 83.6204 106.208 84.0019 104.861C84.3762 103.523 84.3864 102.044 84.0267 100.44C83.6548 98.7967 83.0134 97.4572 82.1028 96.4217C81.1921 95.3861 80.0959 94.6784 78.823 94.3057C77.5417 93.9339 76.1983 93.9012 74.7768 94.2179C73.3318 94.5451 72.1106 95.15 71.137 96.0299C70.1641 96.9178 69.4733 98.0203 69.0741 99.353C68.683 100.685 68.6647 102.165 69.0366 103.808C69.3963 105.412 70.0448 106.743 70.9732 107.793C71.9096 108.842 72.9978 109.55 74.2636 109.932C75.5213 110.314 76.8642 110.339 78.2777 110.023L78.278 110.023Z" fill="#E25050"/>
<path d="M98.481 110.337L92.8069 85.0894L98.4364 83.8285L99.9953 90.7758L98.8758 88.8925C99.2518 87.0181 100.148 85.4638 101.579 84.212C103.002 82.9611 104.924 82.0649 107.354 81.5226L108.615 87.1521C108.354 87.1384 108.103 87.1559 107.879 87.1872C107.656 87.2265 107.432 87.2655 107.21 87.3128C104.979 87.8183 103.341 88.8722 102.312 90.4806C101.283 92.0809 101.059 94.1754 101.642 96.7633L104.396 109.006L98.4807 110.337L98.481 110.337Z" fill="#E25050"/>
<path d="M131.853 102.767L130.711 97.661L130.136 96.6479L128.121 87.7168C127.732 85.9861 126.915 84.7542 125.654 84.0227C124.401 83.2986 122.715 83.1714 120.602 83.6402C119.182 83.9648 117.84 84.5009 116.568 85.2491C115.297 85.9973 114.274 86.8739 113.507 87.8707L110.227 84.0895C111.348 82.7478 112.79 81.6005 114.546 80.6644C116.301 79.7204 118.195 79.0221 120.211 78.5711C123.863 77.749 126.885 77.9826 129.285 79.2872C131.677 80.5849 133.288 83.059 134.111 86.7193L137.435 101.511L131.853 102.767ZM123.988 104.883C122.099 105.313 120.366 105.361 118.805 105.034C117.245 104.707 115.942 104.053 114.916 103.078C113.881 102.096 113.204 100.882 112.877 99.4375C112.56 98.016 112.616 96.662 113.036 95.3757C113.456 94.0897 114.37 92.9399 115.761 91.9358C117.16 90.9229 119.134 90.1353 121.682 89.5563L129.01 87.9095L129.893 91.8396L122.994 93.3854C120.977 93.8444 119.694 94.4721 119.142 95.2679C118.599 96.0711 118.429 96.9496 118.64 97.8944C118.88 98.9663 119.501 99.7148 120.489 100.157C121.485 100.599 122.741 100.649 124.249 100.307C125.702 99.9789 126.93 99.357 127.923 98.4346C128.926 97.5192 129.537 96.3516 129.75 94.9487L131.538 98.2739C131.305 99.882 130.545 101.26 129.266 102.407C127.986 103.554 126.228 104.384 123.988 104.882L123.988 104.883Z" fill="#E25050"/>
<path d="M158.034 96.7316L152.36 71.4837L157.99 70.2228L159.549 77.1701L158.429 75.2868C158.805 73.4123 159.701 71.8581 161.132 70.6063C162.555 69.3554 164.477 68.4592 166.907 67.9169L168.168 73.5464C167.907 73.5326 167.657 73.5502 167.433 73.5814C167.21 73.6207 166.986 73.6598 166.763 73.7071C164.533 74.2126 162.895 75.2665 161.866 76.8748C160.836 78.4751 160.613 80.5697 161.196 83.1575L163.949 95.4002L158.034 96.7313L158.034 96.7316Z" fill="#E25050"/>
<path d="M191.406 89.1611L190.264 84.0552L189.688 83.0422L187.674 74.1111C187.284 72.3804 186.467 71.1484 185.206 70.4169C183.954 69.6928 182.268 69.5656 180.155 70.0345C178.734 70.3591 177.392 70.8951 176.121 71.6433C174.849 72.3912 173.826 73.2681 173.06 74.265L169.779 70.4838C170.9 69.1421 172.342 67.9948 174.098 67.0587C175.853 66.1147 177.747 65.4164 179.764 64.9654C183.416 64.1433 186.437 64.3769 188.837 65.6815C191.229 66.9791 192.84 69.4533 193.663 73.1136L196.987 87.905L191.406 89.1611L191.406 89.1611ZM183.541 91.2772C181.652 91.707 179.919 91.7551 178.358 91.4282C176.797 91.1012 175.495 90.4472 174.469 89.4723C173.434 88.4903 172.757 87.2764 172.429 85.8317C172.113 84.4102 172.169 83.0562 172.589 81.77C173.009 80.484 173.922 79.3341 175.314 78.3301C176.712 77.3172 178.686 76.5295 181.234 75.9506L188.563 74.3038L189.446 78.2338L182.546 79.7796C180.53 80.2386 179.246 80.8664 178.694 81.6622C178.151 82.4654 177.981 83.3439 178.192 84.2886C178.432 85.3606 179.053 86.1091 180.041 86.5515C181.037 86.9935 182.293 87.0431 183.801 86.7012C185.254 86.3732 186.482 85.7513 187.475 84.8289C188.478 83.9136 189.089 82.7459 189.302 81.343L191.09 84.6682C190.857 86.2763 190.097 87.6539 188.818 88.8011C187.539 89.9479 185.78 90.7786 183.541 91.2766L183.541 91.2772Z" fill="#E25050"/>
<path d="M218.614 83.2867C216.47 83.7669 214.46 83.73 212.574 83.1603C210.687 82.5905 209.052 81.459 207.668 79.7654C206.275 78.0727 205.25 75.7658 204.591 72.8361C203.922 69.8751 203.871 67.3296 204.442 65.2158C205.012 63.1019 206.031 61.3891 207.513 60.0831C208.987 58.7781 210.748 57.8905 212.796 57.4281C215.289 56.8714 217.608 56.9092 219.754 57.5576C221.9 58.198 223.749 59.3563 225.301 61.0245C226.854 62.7007 227.927 64.8403 228.513 67.4528C229.099 70.073 229.052 72.4661 228.366 74.6406C227.68 76.8152 226.505 78.6578 224.841 80.1773C223.177 81.6887 221.099 82.7308 218.614 83.2867L218.614 83.2867ZM204.542 86.1059L196.656 51.029L202.57 49.698L206.093 65.3949L207.134 72.2087L208.828 78.8822L210.171 84.8364L204.542 86.1053L204.542 86.1059ZM216.81 78.3789C218.231 78.0622 219.428 77.4598 220.41 76.5791C221.384 75.6992 222.065 74.5812 222.462 73.2328C222.853 71.8929 222.871 70.4126 222.511 68.8088C222.139 67.1654 221.49 65.8271 220.564 64.8012C219.637 63.7673 218.541 63.0596 217.283 62.6772C216.019 62.3037 214.683 62.2702 213.261 62.5872C211.849 62.911 210.643 63.5062 209.646 64.3966C208.656 65.2782 207.958 66.3896 207.567 67.7214C207.168 69.0541 207.15 70.5344 207.521 72.1775C207.881 73.7813 208.53 75.1119 209.458 76.1618C210.395 77.2109 211.499 77.9178 212.773 78.2985C214.046 78.6711 215.397 78.6949 216.81 78.3791L216.81 78.3789Z" fill="#E25050"/>
<path d="M236.967 78.6984L231.293 53.4506L237.199 52.1204L242.882 77.3674L236.967 78.6984ZM233.331 48.627C232.227 48.8705 231.238 48.7285 230.378 48.1915C229.512 47.6631 228.971 46.9065 228.748 45.9303C228.523 44.9219 228.688 43.9951 229.243 43.1581C229.799 42.3211 230.629 41.7808 231.732 41.5294C232.836 41.2859 233.815 41.4047 234.669 41.8936C235.523 42.3744 236.061 43.107 236.284 44.0833C236.512 45.124 236.367 46.0812 235.83 46.9405C235.294 47.8079 234.466 48.3722 233.331 48.627L233.331 48.627Z" fill="#E25050"/>
<path d="M258.505 74.1506C256.393 74.6275 254.308 74.8093 252.24 74.6888C250.182 74.5757 248.491 74.2539 247.178 73.7228L248.442 68.7191C249.742 69.1866 251.226 69.4811 252.911 69.5999C254.589 69.72 256.217 69.6012 257.797 69.244C259.655 68.8256 260.946 68.2706 261.671 67.5784C262.388 66.8875 262.659 66.1205 262.465 65.2631C262.305 64.5728 261.908 64.1101 261.258 63.8764C260.609 63.6426 259.809 63.5299 258.853 63.547C257.896 63.5642 256.837 63.616 255.685 63.7103C254.533 63.8043 253.359 63.8439 252.18 63.8268C251.008 63.8091 249.903 63.6466 248.871 63.3301C247.84 63.0138 246.94 62.4807 246.173 61.7311C245.412 60.9726 244.86 59.8677 244.533 58.423C244.172 56.8111 244.319 55.3177 244.964 53.9275C245.618 52.5444 246.696 51.3368 248.2 50.3212C249.712 49.3048 251.599 48.5422 253.87 48.0325C255.577 47.6458 257.336 47.4489 259.154 47.4404C260.972 47.4243 262.521 47.6384 263.818 48.0818L262.553 53.0776C261.198 52.6237 259.876 52.4023 258.601 52.4033C257.333 52.4034 256.097 52.5471 254.898 52.8164C253.104 53.2201 251.829 53.7817 251.085 54.5161C250.339 55.2425 250.053 56.0194 250.243 56.8365C250.411 57.5992 250.819 58.1012 251.471 58.3512C252.13 58.6002 252.932 58.7372 253.9 58.7513C254.86 58.7665 255.919 58.7143 257.069 58.6043C258.22 58.4943 259.378 58.4644 260.543 58.4989C261.717 58.5326 262.813 58.688 263.857 58.9707C264.893 59.2459 265.8 59.77 266.567 60.5197C267.327 61.2782 267.869 62.3596 268.194 63.7802C268.543 65.3609 268.386 66.8308 267.723 68.207C267.052 69.5838 265.941 70.7865 264.382 71.8159C262.83 72.8445 260.863 73.6233 258.505 74.1503L258.505 74.1506Z" fill="#E25050"/>
<path d="M286.626 67.746C283.981 68.3344 281.492 68.306 279.183 67.6501C276.866 66.9947 274.901 65.8239 273.298 64.1367C271.694 62.4412 270.61 60.3513 270.053 57.858C269.486 55.3414 269.568 52.9773 270.3 50.7737C271.025 48.5792 272.301 46.6932 274.114 45.126C275.935 43.558 278.163 42.4762 280.816 41.8866C283.269 41.3337 285.552 41.3426 287.649 41.9071C289.747 42.4792 291.496 43.6156 292.906 45.3227L288.962 48.9935C287.938 47.9614 286.821 47.2886 285.602 46.967C284.391 46.6367 283.154 46.6175 281.891 46.9016C280.439 47.2296 279.201 47.8362 278.18 48.7292C277.159 49.6221 276.445 50.7352 276.046 52.0679C275.655 53.3997 275.637 54.88 276.009 56.523C276.38 58.1581 277.021 59.4976 277.956 60.5306C278.883 61.5645 279.994 62.2625 281.307 62.631C282.613 63.0006 283.996 63.0207 285.44 62.6935C286.703 62.4095 287.816 61.8644 288.772 61.0515C289.728 60.2382 290.453 59.1486 290.938 57.7826L296.076 59.4072C295.522 61.5193 294.429 63.2967 292.783 64.7415C291.137 66.194 289.087 67.1929 286.626 67.7463L286.626 67.746Z" fill="#E25050"/>
<path d="M317.981 60.2433L316.839 55.1374L316.264 54.1243L314.249 45.1932C313.86 43.4626 313.043 42.2306 311.782 41.4991C310.529 40.775 308.843 40.6478 306.73 41.1167C305.31 41.4413 303.968 41.9773 302.696 42.7255C301.424 43.4734 300.402 44.3503 299.635 45.3471L296.355 41.566C297.476 40.2242 298.918 39.0769 300.673 38.1409C302.428 37.1968 304.323 36.4986 306.339 36.0476C309.991 35.2252 313.013 35.4591 315.413 36.7636C317.805 38.0613 319.415 40.5354 320.239 44.1958L323.563 58.9871L317.981 60.2433ZM310.116 62.3594C308.227 62.7892 306.494 62.8373 304.933 62.5104C303.373 62.1834 302.07 61.5294 301.044 60.5545C300.009 59.5725 299.332 58.3586 299.005 56.9139C298.688 55.4924 298.744 54.1384 299.164 52.8522C299.584 51.5662 300.497 50.4163 301.889 49.4123C303.288 48.3993 305.262 47.6114 307.81 47.0328L315.138 45.386L316.021 49.316L309.121 50.8618C307.105 51.3209 305.821 51.9486 305.269 52.7443C304.727 53.5473 304.557 54.4257 304.768 55.3708C305.008 56.4427 305.629 57.1912 306.617 57.634C307.612 58.076 308.869 58.1256 310.377 57.7836C311.829 57.4556 313.057 56.8338 314.051 55.9113C315.053 54.9961 315.664 53.8287 315.878 52.4258L317.665 55.751C317.433 57.3587 316.673 58.7368 315.393 59.8836C314.114 61.0304 312.356 61.8611 310.116 62.3594L310.116 62.3594Z" fill="#E25050"/>
<path d="M331.117 57.1884L325.443 31.9405L331.073 30.6796L332.632 37.6269L331.512 35.7436C331.888 33.8691 332.784 32.3149 334.215 31.0631C335.638 29.8122 337.56 28.916 339.99 28.3737L341.251 34.0032C340.99 33.9895 340.74 34.0069 340.516 34.0382C340.293 34.0775 340.069 34.1168 339.846 34.1638C337.616 34.6693 335.978 35.7233 334.949 37.3316C333.919 38.9319 333.696 41.0265 334.279 43.6146L337.032 55.8573L331.117 57.1884Z" fill="#E25050"/>
<path d="M363.548 59.7607C362.452 60.0033 361.376 60.1221 360.327 60.1082C359.285 60.0934 358.357 59.9125 357.55 59.5651L358.261 54.7889C359.324 55.2481 360.549 55.3171 361.938 55.0039C363.01 54.7638 363.768 54.2388 364.213 53.4216C364.657 52.6124 364.735 51.5483 364.436 50.2225L358.626 24.3631L364.532 23.0329L370.312 48.7492C370.938 51.5277 370.67 53.8949 369.507 55.8584C368.337 57.8307 366.359 59.1306 363.548 59.7607ZM360.616 19.5446C359.513 19.7961 358.524 19.654 357.664 19.1171C356.797 18.5807 356.256 17.8241 356.034 16.8478C355.808 15.8395 355.974 14.9207 356.53 14.084C357.085 13.247 357.915 12.6987 359.018 12.4552C360.122 12.2037 361.101 12.3226 361.955 12.8111C362.809 13.3 363.348 14.0326 363.57 15.0088C363.799 16.0492 363.653 16.9987 363.116 17.8661C362.58 18.7335 361.752 19.2897 360.617 19.5446L360.616 19.5446Z" fill="#E25050"/>
<path d="M388.718 44.4145C386.574 44.895 384.595 44.9194 382.771 44.4817C380.956 44.0509 379.404 43.1056 378.118 41.654C376.832 40.2102 375.905 38.2259 375.337 35.7014L372.092 21.2836L378.007 19.9526L381.064 33.5693C381.573 35.8402 382.467 37.4215 383.744 38.3055C385.021 39.1976 386.604 39.4247 388.494 39.0032C389.884 38.69 391.021 38.1344 391.921 37.335C392.815 36.5445 393.431 35.5065 393.756 34.2467C394.081 32.9785 394.06 31.5104 393.686 29.843L390.813 17.0763L396.728 15.7453L402.402 40.9932L396.773 42.2544L395.245 35.4499L396.703 37.3065C396.225 39.1346 395.262 40.6713 393.813 41.9007C392.372 43.1373 390.671 43.9782 388.718 44.4145Z" fill="#E25050"/>
<path d="M418.731 10.381C420.748 9.93002 422.64 9.92229 424.414 10.3493C426.18 10.7768 427.705 11.7007 428.98 13.121C430.263 14.5405 431.19 16.5248 431.76 19.0737L435.01 33.5398L429.103 34.87L426.02 21.1586C425.514 18.92 424.616 17.3713 423.308 16.5066C422.009 15.6408 420.411 15.4237 418.521 15.8452C417.131 16.1585 415.97 16.7166 415.021 17.5207C414.081 18.3323 413.44 19.3648 413.105 20.6095C412.779 21.8613 412.801 23.3374 413.187 25.0363L416.059 37.803L410.144 39.134L404.47 13.8861L410.099 12.6252L411.627 19.4294L410.169 17.5728C410.69 15.7648 411.695 14.2399 413.184 12.9983C414.68 11.7478 416.523 10.876 418.731 10.3811L418.731 10.381Z" fill="#E25050"/>
<path d="M452.099 29.9315C449.327 30.5495 447.021 30.3154 445.186 29.2207C443.351 28.1259 442.12 26.1811 441.49 23.3783L436.4 0.726532L442.308 -0.595601L447.366 21.905C447.636 23.1037 448.146 23.9613 448.915 24.4831C449.676 25.0142 450.607 25.1457 451.711 24.9023C453.037 24.6034 454.065 24.0104 454.785 23.1159L457.389 26.9503C456.822 27.6748 456.064 28.2888 455.126 28.7992C454.179 29.3109 453.17 29.6908 452.099 29.9309L452.099 29.9315ZM434.594 12.1627L433.531 7.4307L450.364 3.65356L451.426 8.37751L434.595 12.163L434.594 12.1627Z" fill="#E25050"/>
<path d="M473.13 25.131C470.55 25.713 468.124 25.6698 465.855 25.0017C463.585 24.3416 461.644 23.1598 460.041 21.4727C458.437 19.7772 457.353 17.6873 456.796 15.194C456.229 12.6774 456.311 10.3133 457.043 8.10967C457.767 5.91522 459.02 4.03173 460.785 2.47763C462.558 0.922693 464.731 -0.145537 467.32 -0.728432C469.932 -1.31382 472.379 -1.28916 474.664 -0.638748C476.947 0.00395923 478.878 1.16187 480.462 2.82667C482.039 4.49232 483.117 6.59905 483.695 9.14714C484.252 11.6405 484.177 13.9878 483.462 16.2057C482.755 18.4148 481.512 20.3135 479.725 21.8862C477.945 23.4583 475.75 24.5448 473.129 25.131L473.13 25.131ZM471.993 20.0735C473.446 19.7454 474.667 19.1405 475.657 18.2589C476.653 17.3685 477.335 16.2588 477.717 14.9118C478.091 13.5736 478.101 12.0942 477.742 10.4903C477.37 8.84693 476.728 7.50777 475.818 6.47222C474.907 5.43667 473.811 4.72895 472.538 4.35624C471.257 3.9844 469.913 3.95176 468.492 4.26839C467.047 4.59554 465.826 5.20018 464.852 6.08038C463.879 6.96828 463.189 8.07083 462.789 9.40351C462.398 10.7354 462.38 12.2156 462.752 13.8587C463.112 15.4626 463.76 16.7932 464.689 17.8431C465.625 18.8921 466.713 19.6007 467.979 19.9822C469.237 20.3646 470.579 20.3892 471.993 20.0734L471.993 20.0735Z" fill="#E25050"/>
<path d="M490.109 9.33568L484.002 -12.5373L490.997 -14.1092L494.793 8.27731L490.109 9.33534L490.109 9.33568ZM495.017 20.0978C493.914 20.3493 492.914 20.1921 492.029 19.6333C491.142 19.0665 490.581 18.2793 490.356 17.2709C490.131 16.2626 490.294 15.3277 490.862 14.449C491.43 13.5783 492.267 13.0212 493.37 12.7697C494.466 12.527 495.448 12.6779 496.301 13.2317C497.154 13.7858 497.689 14.5673 497.923 15.5751C498.148 16.5835 497.993 17.5255 497.467 18.408C496.932 19.2917 496.121 19.8543 495.017 20.0978Z" fill="#E25050"/>
</g>
<path fill-rule="evenodd" clip-rule="evenodd" d="M52.4732 102.218L470.711 6.66575C499.543 0.0785576 528.522 18.2793 535.109 47.1114C541.696 75.9436 523.496 104.923 494.664 111.51L76.4262 207.062C47.5941 213.649 18.6147 195.449 12.0275 166.617C5.44035 137.784 23.6411 108.805 52.4732 102.218Z" stroke="#FEFEFE" stroke-width="5.5534" stroke-miterlimit="22.9256"/>
<path d="M43.5136 173.169L36.0748 140.077L51.5808 136.59C55.5509 135.703 58.7537 135.804 61.1809 136.895C63.6161 137.985 65.1223 139.836 65.7085 142.456C66.1088 144.219 66.0379 145.818 65.4943 147.247C64.9588 148.675 64.0763 149.886 62.8617 150.872C61.6383 151.851 60.2298 152.532 58.6179 152.892L59.0886 150.992C60.9473 150.581 62.6975 150.54 64.3251 150.884C65.9607 151.228 67.3593 151.953 68.5114 153.045C69.6723 154.144 70.4692 155.654 70.8944 157.576C71.5356 160.418 70.9427 162.867 69.124 164.931C67.3054 166.994 64.2525 168.51 59.9649 169.471L43.5142 173.168L43.5136 173.169ZM48.5706 166.971L58.5032 164.74C60.8053 164.218 62.4802 163.445 63.5438 162.41C64.599 161.375 64.9393 160.025 64.5648 158.357C64.2017 156.721 63.312 155.651 61.9123 155.153C60.5045 154.656 58.6539 154.668 56.3518 155.189L45.9508 157.525L44.8826 152.744L54.0534 150.689C56.1972 150.209 57.7526 149.456 58.7372 148.445C59.7209 147.426 60.0383 146.166 59.6956 144.65C59.3506 143.11 58.5137 142.083 57.1956 141.585C55.8771 141.087 54.1458 141.078 52.0029 141.567L43.3005 143.517L48.5709 166.971L48.5706 166.971Z" fill="#FEFEFE"/>
<path d="M90.3311 162.861C87.751 163.443 85.3258 163.4 83.0557 162.732C80.7863 162.071 78.8455 160.89 77.2423 159.203C75.6382 157.508 74.5544 155.418 73.9973 152.924C73.4301 150.407 73.5117 148.043 74.2438 145.84C74.9685 143.645 76.221 141.762 77.9862 140.208C79.7597 138.653 81.9325 137.584 84.5207 137.002C87.1328 136.416 89.5803 136.441 91.8648 137.091C94.1485 137.734 96.0791 138.892 97.6634 140.557C99.2398 142.222 100.318 144.329 100.896 146.877C101.453 149.371 101.378 151.718 100.663 153.936C99.9564 156.145 98.7135 158.043 96.9257 159.616C95.1458 161.188 92.9507 162.275 90.3305 162.861L90.3311 162.861ZM89.194 157.803C90.6467 157.475 91.8682 156.87 92.8576 155.989C93.8544 155.099 94.5364 153.988 94.9179 152.642C95.2922 151.304 95.3025 149.824 94.9427 148.22C94.5708 146.577 93.9294 145.238 93.0188 144.202C92.1081 143.167 91.0119 142.459 89.739 142.086C88.4577 141.714 87.1143 141.682 85.6928 141.998C84.2478 142.326 83.0266 142.931 82.053 143.81C81.0801 144.698 80.3893 145.801 79.9901 147.134C79.599 148.465 79.5807 149.946 79.9526 151.589C80.3124 153.193 80.9609 154.523 81.8892 155.573C82.8256 156.622 83.9138 157.331 85.1796 157.712C86.4373 158.095 87.7802 158.119 89.1937 157.803L89.194 157.803Z" fill="#FEFEFE"/>
<path d="M109.397 158.118L103.723 132.87L109.352 131.609L110.911 138.556L109.792 136.673C110.168 134.799 111.064 133.244 112.495 131.993C113.918 130.742 115.84 129.845 118.27 129.303L119.531 134.933C119.27 134.919 119.019 134.936 118.795 134.968C118.572 135.007 118.348 135.046 118.126 135.093C115.895 135.599 114.257 136.653 113.228 138.261C112.199 139.861 111.976 141.956 112.558 144.544L115.312 156.787L109.397 158.118L109.397 158.118Z" fill="#FEFEFE"/>
<path d="M142.769 150.547L141.627 145.442L141.051 144.428L139.037 135.497C138.647 133.767 137.83 132.535 136.569 131.803C135.317 131.079 133.63 130.952 131.518 131.421C130.097 131.745 128.755 132.281 127.484 133.03C126.212 133.778 125.189 134.654 124.423 135.651L121.142 131.87C122.264 130.528 123.705 129.381 125.461 128.445C127.216 127.501 129.11 126.803 131.127 126.352C134.779 125.53 137.8 125.763 140.201 127.068C142.592 128.365 144.203 130.839 145.026 134.5L148.35 149.291L142.769 150.547ZM134.904 152.663C133.015 153.093 131.282 153.141 129.721 152.814C128.16 152.487 126.858 151.833 125.832 150.859C124.797 149.877 124.12 148.663 123.792 147.218C123.476 145.797 123.531 144.443 123.952 143.156C124.372 141.87 125.285 140.72 126.677 139.716C128.075 138.703 130.049 137.916 132.597 137.337L139.926 135.69L140.809 139.62L133.909 141.166C131.893 141.625 130.609 142.253 130.057 143.048C129.515 143.852 129.345 144.73 129.556 145.675C129.796 146.747 130.417 147.495 131.404 147.938C132.4 148.38 133.656 148.429 135.165 148.087C136.617 147.759 137.845 147.138 138.839 146.215C139.841 145.3 140.452 144.132 140.665 142.729L142.453 146.054C142.221 147.662 141.46 149.04 140.181 150.187C138.902 151.334 137.143 152.165 134.904 152.663L134.904 152.663Z" fill="#FEFEFE"/>
<path d="M168.951 144.512L163.277 119.264L168.906 118.003L170.465 124.95L169.346 123.067C169.722 121.193 170.618 119.638 172.049 118.387C173.471 117.136 175.394 116.239 177.824 115.697L179.085 121.327C178.824 121.313 178.573 121.33 178.349 121.362C178.126 121.401 177.902 121.44 177.68 121.487C175.449 121.993 173.811 123.047 172.782 124.655C171.753 126.255 171.53 128.35 172.112 130.938L174.866 143.181L168.951 144.512Z" fill="#FEFEFE"/>
<path d="M202.322 136.942L201.18 131.836L200.605 130.823L198.59 121.892C198.201 120.161 197.384 118.929 196.123 118.197C194.87 117.473 193.184 117.346 191.071 117.815C189.651 118.14 188.309 118.676 187.037 119.424C185.766 120.172 184.743 121.049 183.976 122.045L180.696 118.264C181.817 116.923 183.258 115.775 185.014 114.839C186.769 113.895 188.663 113.197 190.68 112.746C194.332 111.924 197.354 112.157 199.754 113.462C202.146 114.76 203.756 117.234 204.58 120.894L207.903 135.685L202.322 136.942L202.322 136.942ZM194.458 139.058C192.569 139.488 190.835 139.536 189.274 139.209C187.714 138.882 186.412 138.228 185.385 137.253C184.35 136.271 183.673 135.057 183.346 133.612C183.029 132.191 183.085 130.837 183.505 129.55C183.925 128.265 184.839 127.115 186.23 126.111C187.629 125.098 189.603 124.31 192.151 123.731L199.479 122.084L200.362 126.014L193.462 127.56C191.446 128.019 190.162 128.647 189.611 129.443C189.068 130.246 188.898 131.124 189.109 132.069C189.349 133.141 189.97 133.89 190.958 134.332C191.953 134.774 193.21 134.824 194.718 134.482C196.171 134.154 197.398 133.532 198.392 132.609C199.394 131.694 200.005 130.526 200.219 129.123L202.006 132.449C201.774 134.057 201.014 135.434 199.734 136.582C198.455 137.728 196.697 138.559 194.457 139.057L194.458 139.058Z" fill="#FEFEFE"/>
<path d="M229.531 131.067C227.387 131.548 225.377 131.511 223.491 130.941C221.604 130.371 219.969 129.24 218.585 127.546C217.192 125.853 216.167 123.547 215.508 120.617C214.839 117.656 214.788 115.11 215.359 112.997C215.929 110.883 216.948 109.17 218.43 107.864C219.904 106.559 221.665 105.671 223.713 105.209C226.206 104.652 228.525 104.69 230.671 105.338C232.817 105.979 234.666 107.137 236.218 108.805C237.771 110.481 238.844 112.621 239.43 115.234C240.016 117.854 239.969 120.247 239.283 122.421C238.597 124.596 237.422 126.439 235.758 127.958C234.094 129.469 232.016 130.512 229.531 131.067L229.531 131.067ZM215.459 133.887L207.573 98.8098L213.487 97.4788L217.01 113.176L218.051 119.989L219.745 126.663L221.088 132.617L215.459 133.886L215.459 133.887ZM227.727 126.16C229.148 125.843 230.345 125.241 231.327 124.36C232.301 123.48 232.982 122.362 233.379 121.014C233.77 119.674 233.788 118.193 233.428 116.59C233.056 114.946 232.407 113.608 231.481 112.582C230.554 111.548 229.458 110.84 228.2 110.458C226.936 110.084 225.6 110.051 224.178 110.368C222.766 110.692 221.56 111.287 220.563 112.177C219.573 113.059 218.875 114.17 218.484 115.502C218.085 116.835 218.067 118.315 218.438 119.958C218.798 121.562 219.447 122.893 220.375 123.943C221.311 124.992 222.416 125.699 223.69 126.079C224.963 126.452 226.314 126.476 227.727 126.16L227.727 126.16Z" fill="#FEFEFE"/>
<path d="M247.883 126.479L242.208 101.231L248.115 99.9008L253.797 125.148L247.883 126.479ZM244.247 96.4075C243.143 96.6509 242.154 96.5089 241.294 95.972C240.428 95.4436 239.887 94.687 239.664 93.7107C239.439 92.7024 239.604 91.7756 240.159 90.9389C240.715 90.1019 241.545 89.5616 242.648 89.3101C243.752 89.0667 244.731 89.1855 245.585 89.6741C246.439 90.1549 246.977 90.8875 247.2 91.8638C247.428 92.9045 247.283 93.8616 246.746 94.721C246.21 95.5884 245.382 96.1526 244.247 96.4075L244.247 96.4075Z" fill="#FEFEFE"/>
<path d="M269.421 121.931C267.309 122.408 265.224 122.59 263.156 122.469C261.098 122.356 259.407 122.034 258.094 121.503L259.359 116.5C260.658 116.967 262.142 117.262 263.827 117.381C265.505 117.501 267.133 117.382 268.713 117.025C270.571 116.606 271.862 116.051 272.587 115.359C273.304 114.668 273.575 113.901 273.381 113.044C273.221 112.353 272.824 111.891 272.174 111.657C271.525 111.423 270.725 111.31 269.769 111.328C268.812 111.345 267.753 111.397 266.601 111.491C265.449 111.585 264.275 111.624 263.096 111.607C261.924 111.59 260.819 111.427 259.787 111.111C258.756 110.794 257.856 110.261 257.089 109.512C256.328 108.753 255.776 107.648 255.449 106.204C255.088 104.592 255.235 103.098 255.88 101.708C256.534 100.325 257.612 99.117 259.116 98.1015C260.628 97.0851 262.515 96.3225 264.786 95.8127C266.493 95.426 268.251 95.2292 270.07 95.2207C271.888 95.2045 273.437 95.4187 274.734 95.8621L273.469 100.858C272.114 100.404 270.792 100.183 269.517 100.184C268.25 100.184 267.013 100.327 265.814 100.597C264.02 101 262.745 101.562 262.001 102.296C261.255 103.023 260.969 103.8 261.159 104.617C261.327 105.379 261.736 105.882 262.387 106.131C263.046 106.38 263.848 106.517 264.816 106.532C265.776 106.547 266.835 106.495 267.985 106.385C269.136 106.275 270.294 106.245 271.459 106.279C272.633 106.313 273.729 106.468 274.773 106.751C275.809 107.026 276.716 107.55 277.483 108.3C278.243 109.058 278.785 110.14 279.11 111.561C279.459 113.141 279.302 114.611 278.639 115.987C277.968 117.364 276.857 118.567 275.298 119.596C273.746 120.625 271.779 121.404 269.421 121.931L269.421 121.931Z" fill="#FEFEFE"/>
<path d="M297.542 115.526C294.898 116.115 292.409 116.087 290.1 115.431C287.782 114.775 285.818 113.604 284.215 111.917C282.611 110.222 281.527 108.132 280.97 105.639C280.402 103.122 280.484 100.758 281.216 98.5542C281.941 96.3597 283.218 94.4737 285.03 92.9066C286.851 91.3385 289.08 90.2567 291.732 89.6671C294.185 89.1142 296.469 89.1231 298.566 89.6876C300.663 90.2597 302.413 91.3961 303.823 93.1032L299.879 96.774C298.855 95.742 297.738 95.0688 296.519 94.7475C295.307 94.4173 294.07 94.398 292.808 94.6821C291.355 95.0101 290.118 95.6167 289.097 96.5097C288.076 97.4026 287.362 98.5157 286.963 99.8484C286.572 101.18 286.553 102.66 286.925 104.304C287.296 105.939 287.938 107.278 288.872 108.311C289.799 109.345 290.911 110.043 292.224 110.411C293.529 110.781 294.912 110.801 296.357 110.474C297.619 110.19 298.733 109.645 299.689 108.832C300.645 108.019 301.37 106.929 301.855 105.563L306.993 107.188C306.438 109.3 305.346 111.077 303.699 112.522C302.053 113.974 300.003 114.973 297.542 115.527L297.542 115.526Z" fill="#FEFEFE"/>
<path d="M328.897 108.024L327.755 102.918L327.18 101.905L325.165 92.9738C324.776 91.2431 323.959 90.0111 322.698 89.2796C321.445 88.5555 319.759 88.4283 317.646 88.8972C316.226 89.2218 314.884 89.7578 313.612 90.506C312.34 91.2539 311.318 92.1309 310.551 93.1277L307.271 89.3465C308.392 88.0048 309.834 86.8574 311.589 85.9214C313.345 84.9773 315.239 84.2791 317.255 83.8281C320.907 83.0057 323.929 83.2396 326.329 84.5441C328.721 85.8418 330.332 88.3163 331.155 91.9763L334.479 106.768L328.897 108.024ZM321.032 110.14C319.143 110.57 317.41 110.618 315.849 110.291C314.289 109.964 312.986 109.31 311.96 108.335C310.925 107.353 310.248 106.139 309.921 104.694C309.604 103.273 309.66 101.919 310.08 100.633C310.5 99.3467 311.413 98.1968 312.805 97.1928C314.204 96.1799 316.178 95.3919 318.726 94.8133L326.054 93.1665L326.937 97.0966L320.037 98.6423C318.021 99.1014 316.737 99.7291 316.185 100.525C315.643 101.328 315.473 102.206 315.684 103.151C315.924 104.223 316.545 104.972 317.533 105.415C318.528 105.857 319.785 105.906 321.293 105.564C322.745 105.236 323.973 104.614 324.967 103.692C325.969 102.777 326.58 101.609 326.794 100.206L328.581 103.532C328.349 105.139 327.589 106.517 326.309 107.664C325.03 108.811 323.272 109.642 321.032 110.14L321.032 110.14Z" fill="#FEFEFE"/>
<path d="M342.034 104.969L336.36 79.7207L341.99 78.4598L343.549 85.4072L342.429 83.5238C342.805 81.6494 343.701 80.0952 345.132 78.8434C346.555 77.5924 348.477 76.6962 350.907 76.154L352.168 81.7834C351.907 81.7697 351.657 81.7872 351.432 81.8185C351.209 81.8578 350.986 81.8972 350.763 81.9442C348.533 82.4497 346.894 83.5036 345.866 85.1119C344.836 86.7122 344.613 88.8068 345.196 91.3949L347.949 103.638L342.034 104.969L342.034 104.969Z" fill="#FEFEFE"/>
<path d="M374.465 107.541C373.369 107.784 372.292 107.902 371.243 107.888C370.202 107.874 369.274 107.693 368.466 107.345L369.177 102.569C370.24 103.028 371.466 103.097 372.855 102.784C373.927 102.544 374.685 102.019 375.129 101.202C375.574 100.393 375.651 99.3287 375.352 98.0028L369.542 72.1434L375.449 70.8133L381.228 96.5295C381.855 99.3081 381.586 101.675 380.424 103.639C379.254 105.611 377.275 106.911 374.465 107.541ZM371.533 67.3249C370.429 67.5764 369.44 67.4344 368.581 66.8974C367.713 66.361 367.172 65.6044 366.95 64.6281C366.725 63.6198 366.89 62.701 367.446 61.864C368.002 61.027 368.831 60.4787 369.935 60.2353C371.038 59.9838 372.017 60.1026 372.871 60.5915C373.726 61.0803 374.264 61.8129 374.486 62.7892C374.715 63.8296 374.569 64.7791 374.033 65.6464C373.496 66.5138 372.668 67.0701 371.533 67.3249L371.533 67.3249Z" fill="#FEFEFE"/>
<path d="M399.634 92.195C397.491 92.6755 395.511 92.6999 393.687 92.2622C391.872 91.8314 390.321 90.8861 389.034 89.4345C387.749 87.9907 386.822 86.0064 386.253 83.4819L383.009 69.0641L388.923 67.7331L391.98 81.3498C392.49 83.6207 393.383 85.202 394.66 86.086C395.938 86.9781 397.521 87.2053 399.411 86.7838C400.8 86.4705 401.937 85.9149 402.838 85.1155C403.731 84.325 404.348 83.287 404.673 82.0272C404.997 80.759 404.977 79.2909 404.602 77.6235L401.73 64.8569L407.645 63.5258L413.319 88.7737L407.69 90.0349L406.162 83.2305L407.62 85.087C407.142 86.9151 406.178 88.4518 404.729 89.6812C403.288 90.9178 401.588 91.7587 399.634 92.195Z" fill="#FEFEFE"/>
<path d="M429.647 58.1615C431.664 57.7105 433.556 57.7028 435.33 58.1298C437.096 58.5573 438.621 59.4812 439.896 60.9015C441.179 62.321 442.106 64.3053 442.676 66.8542L445.926 81.3203L440.019 82.6505L436.936 68.9391C436.43 66.7005 435.532 65.1518 434.224 64.2872C432.925 63.4213 431.327 63.2042 429.437 63.6257C428.047 63.939 426.886 64.4971 425.938 65.3012C424.997 66.1128 424.356 67.1453 424.021 68.39C423.695 69.6418 423.717 71.1179 424.103 72.8168L426.975 85.5835L421.06 86.9145L415.386 61.6666L421.015 60.4057L422.543 67.2102L421.085 65.3536C421.606 63.5456 422.611 62.0208 424.1 60.7791C425.596 59.5286 427.439 58.6569 429.647 58.1619L429.647 58.1615Z" fill="#FEFEFE"/>
<path d="M463.015 77.7126C460.244 78.3305 457.937 78.0964 456.102 77.0017C454.268 75.9069 453.036 73.9621 452.407 71.1593L447.317 48.5075L453.224 47.1854L458.283 69.686C458.552 70.8847 459.063 71.7423 459.831 72.2641C460.592 72.7952 461.524 72.9268 462.628 72.6833C463.954 72.3845 464.981 71.7914 465.702 70.897L468.305 74.7313C467.738 75.4558 466.981 76.0698 466.042 76.5803C465.096 77.0919 464.087 77.4718 463.015 77.7119L463.015 77.7126ZM445.511 59.9437L444.448 55.2117L461.28 51.4346L462.343 56.1585L445.511 59.944L445.511 59.9437Z" fill="#FEFEFE"/>
<path d="M484.046 72.9115C481.466 73.4935 479.041 73.4503 476.771 72.7822C474.502 72.1221 472.561 70.9404 470.958 69.2532C469.354 67.5577 468.27 65.4678 467.713 62.9745C467.145 60.4579 467.227 58.0938 467.959 55.8902C468.684 53.6957 469.936 51.8123 471.702 50.2582C473.475 48.7032 475.648 47.635 478.236 47.0521C480.848 46.4667 483.296 46.4914 485.58 47.1418C487.864 47.7845 489.794 48.9424 491.379 50.6072C492.956 52.2728 494.033 54.3796 494.612 56.9277C495.168 59.421 495.093 61.7683 494.379 63.9863C493.672 66.1954 492.429 68.094 490.641 69.6667C488.861 71.2388 486.666 72.3253 484.046 72.9116L484.046 72.9115ZM482.909 67.854C484.362 67.526 485.583 66.921 486.573 66.0395C487.57 65.149 488.252 64.0393 488.633 62.6923C489.008 61.3541 489.018 59.8747 488.658 58.2708C488.286 56.6274 487.645 55.2883 486.734 54.2527C485.824 53.2172 484.727 52.5095 483.454 52.1368C482.173 51.7649 480.83 51.7323 479.408 52.0489C477.964 52.3761 476.742 52.9807 475.769 53.8609C474.796 54.7488 474.105 55.8513 473.706 57.184C473.315 58.5159 473.296 59.9961 473.668 61.6392C474.028 63.2431 474.677 64.5737 475.605 65.6236C476.541 66.6726 477.63 67.3812 478.895 67.7628C480.153 68.1452 481.496 68.1697 482.909 67.854L482.909 67.854Z" fill="#FEFEFE"/>
<path d="M501.026 57.1164L494.919 35.2435L501.914 33.6715L505.71 56.0581L501.026 57.1161L501.026 57.1164ZM505.934 67.8785C504.831 68.13 503.831 67.9728 502.946 67.4141C502.059 66.8473 501.498 66.06 501.273 65.0517C501.048 64.0433 501.211 63.1085 501.779 62.2298C502.347 61.359 503.184 60.8019 504.287 60.5504C505.383 60.3078 506.365 60.4587 507.218 61.0125C508.071 61.5666 508.606 62.3481 508.84 63.3559C509.065 64.3642 508.91 65.3062 508.384 66.1888C507.849 67.0722 507.038 67.6351 505.934 67.8785Z" fill="#FEFEFE"/>
</svg>
